<?xml version="1.0" encoding="utf-8"?>
<!-- Generator: Adobe Illustrator 16.0.0, SVG Export Plug-In . SVG Version: 6.00 Build 0)  -->
<!DOCTYPE svg PUBLIC "-//W3C//DTD SVG 1.1//EN" "http://www.w3.org/Graphics/SVG/1.1/DTD/svg11.dtd">
<svg version="1.1" id="Layer_1" xmlns="http://www.w3.org/2000/svg" xmlns:xlink="http://www.w3.org/1999/xlink" x="0px" y="0px"
	 width="15px" height="12px" viewBox="0 0 15 12" enable-background="new 0 0 15 12" xml:space="preserve">
<title>folder</title>
<desc>Created with Sketch.</desc>
<g id="Page-1">
	<g id="dark" transform="translate(-16.000000, 0.000000)">
		<g id="folder" transform="translate(16.000000, 0.000000)">
			<path id="Combined-Shape" fill="#252526" stroke="#65b7b5" d="M0.5,0.5c0,0.238,0,0.61,0,1.421c0,1.859,0,1.859,0,4.078
				c0,3.935,0,4.417,0,5.501c4.257,0,4.343,0,6.704,0c1.663,0,1.663,0,4.046,0c1.336,0,1.336,0,2.002,0c0.441,0,0.441,0,1.078,0
				c0.066,0,0.122,0,0.17,0c0-0.613,0-0.779,0-1.676c0-2.828,0-2.828,0-5.219c0-1.342,0-1.763,0-2.105c-0.275,0-0.74,0-1.783,0
				c-2.619,0-2.619,0-6.717,0H5.609l-0.5-2c-0.753,0-1.124,0-3.879,0C0.846,0.5,0.699,0.5,0.5,0.5z"/>
			<rect id="Path" x="1" y="4" fill="#65b7b5" width="13" height="1"/>
		</g>
	</g>
</g>
</svg>
